<svg xmlns="http://www.w3.org/2000/svg" version="1.1" xmlns:xlink="http://www.w3.org/1999/xlink" xmlns:svgjs="http://svgjs.dev/svgjs" viewBox="0 0 2400 800" opacity="1"><g fill="hsla(0, 0%, 100%, 1.00)" transform="matrix(1,0,0,1,8.247314453125,-41.841522216796875)"><path d="M-10,10C47.63888888888889,20,153.47222222222223,63.625,266.6666666666667,58C379.86111111111114,52.375,422.2222222222223,-10.125,533.3333333333334,-17C644.4444444444445,-23.875,688.8888888888889,45.625,800,25C911.1111111111111,4.375,955.5555555555557,-123.5,1066.6666666666667,-116C1177.7777777777778,-108.5,1222.2222222222224,45.58333333333333,1333.3333333333335,61C1444.4444444444446,76.41666666666667,1488.888888888889,-41.166666666666664,1600,-42C1711.111111111111,-42.833333333333336,1755.5555555555557,62.625,1866.6666666666667,57C1977.7777777777778,51.375,2022.2222222222224,-81.08333333333333,2133.3333333333335,-69C2244.4444444444443,-56.91666666666667,2292.3611111111113,17.291666666666657,2400,115C2507.6388888888887,212.70833333333334,3254.1666666666665,236.45833333333331,2650,400C2045.8333333333335,563.5416666666667,156.25,795.8333333333334,-500,900" transform="matrix(1,0,0,1,0,150)" opacity="0.05"></path><path d="M-10,10C47.63888888888889,20,153.47222222222223,63.625,266.6666666666667,58C379.86111111111114,52.375,422.2222222222223,-10.125,533.3333333333334,-17C644.4444444444445,-23.875,688.8888888888889,45.625,800,25C911.1111111111111,4.375,955.5555555555557,-123.5,1066.6666666666667,-116C1177.7777777777778,-108.5,1222.2222222222224,45.58333333333333,1333.3333333333335,61C1444.4444444444446,76.41666666666667,1488.888888888889,-41.166666666666664,1600,-42C1711.111111111111,-42.833333333333336,1755.5555555555557,62.625,1866.6666666666667,57C1977.7777777777778,51.375,2022.2222222222224,-81.08333333333333,2133.3333333333335,-69C2244.4444444444443,-56.91666666666667,2292.3611111111113,17.291666666666657,2400,115C2507.6388888888887,212.70833333333334,3254.1666666666665,236.45833333333331,2650,400C2045.8333333333335,563.5416666666667,156.25,795.8333333333334,-500,900" transform="matrix(1,0,0,1,0,300)" opacity="0.29"></path><path d="M-10,10C47.63888888888889,20,153.47222222222223,63.625,266.6666666666667,58C379.86111111111114,52.375,422.2222222222223,-10.125,533.3333333333334,-17C644.4444444444445,-23.875,688.8888888888889,45.625,800,25C911.1111111111111,4.375,955.5555555555557,-123.5,1066.6666666666667,-116C1177.7777777777778,-108.5,1222.2222222222224,45.58333333333333,1333.3333333333335,61C1444.4444444444446,76.41666666666667,1488.888888888889,-41.166666666666664,1600,-42C1711.111111111111,-42.833333333333336,1755.5555555555557,62.625,1866.6666666666667,57C1977.7777777777778,51.375,2022.2222222222224,-81.08333333333333,2133.3333333333335,-69C2244.4444444444443,-56.91666666666667,2292.3611111111113,17.291666666666657,2400,115C2507.6388888888887,212.70833333333334,3254.1666666666665,236.45833333333331,2650,400C2045.8333333333335,563.5416666666667,156.25,795.8333333333334,-500,900" transform="matrix(1,0,0,1,0,450)" opacity="0.53"></path><path d="M-10,10C47.63888888888889,20,153.47222222222223,63.625,266.6666666666667,58C379.86111111111114,52.375,422.2222222222223,-10.125,533.3333333333334,-17C644.4444444444445,-23.875,688.8888888888889,45.625,800,25C911.1111111111111,4.375,955.5555555555557,-123.5,1066.6666666666667,-116C1177.7777777777778,-108.5,1222.2222222222224,45.58333333333333,1333.3333333333335,61C1444.4444444444446,76.41666666666667,1488.888888888889,-41.166666666666664,1600,-42C1711.111111111111,-42.833333333333336,1755.5555555555557,62.625,1866.6666666666667,57C1977.7777777777778,51.375,2022.2222222222224,-81.08333333333333,2133.3333333333335,-69C2244.4444444444443,-56.91666666666667,2292.3611111111113,17.291666666666657,2400,115C2507.6388888888887,212.70833333333334,3254.1666666666665,236.45833333333331,2650,400C2045.8333333333335,563.5416666666667,156.25,795.8333333333334,-500,900" transform="matrix(1,0,0,1,0,600)" opacity="0.76"></path><path d="M-10,10C47.63888888888889,20,153.47222222222223,63.625,266.6666666666667,58C379.86111111111114,52.375,422.2222222222223,-10.125,533.3333333333334,-17C644.4444444444445,-23.875,688.8888888888889,45.625,800,25C911.1111111111111,4.375,955.5555555555557,-123.5,1066.6666666666667,-116C1177.7777777777778,-108.5,1222.2222222222224,45.58333333333333,1333.3333333333335,61C1444.4444444444446,76.41666666666667,1488.888888888889,-41.166666666666664,1600,-42C1711.111111111111,-42.833333333333336,1755.5555555555557,62.625,1866.6666666666667,57C1977.7777777777778,51.375,2022.2222222222224,-81.08333333333333,2133.3333333333335,-69C2244.4444444444443,-56.91666666666667,2292.3611111111113,17.291666666666657,2400,115C2507.6388888888887,212.70833333333334,3254.1666666666665,236.45833333333331,2650,400C2045.8333333333335,563.5416666666667,156.25,795.8333333333334,-500,900" transform="matrix(1,0,0,1,0,750)" opacity="1.00"></path></g></svg>