<?xml version="1.0" standalone="no"?><svg xmlns="http://www.w3.org/2000/svg" viewBox="0 0 1440 320"><path fill="#fff" fill-opacity="1" d="M0,192L16,197.3C32,203,64,213,96,213.3C128,213,160,203,192,186.7C224,171,256,149,288,149.3C320,149,352,171,384,149.3C416,128,448,64,480,37.3C512,11,544,21,576,48C608,75,640,117,672,133.3C704,149,736,139,768,112C800,85,832,43,864,26.7C896,11,928,21,960,32C992,43,1024,53,1056,85.3C1088,117,1120,171,1152,165.3C1184,160,1216,96,1248,80C1280,64,1312,96,1344,133.3C1376,171,1408,213,1424,234.7L1440,256L1440,320L1424,320C1408,320,1376,320,1344,320C1312,320,1280,320,1248,320C1216,320,1184,320,1152,320C1120,320,1088,320,1056,320C1024,320,992,320,960,320C928,320,896,320,864,320C832,320,800,320,768,320C736,320,704,320,672,320C640,320,608,320,576,320C544,320,512,320,480,320C448,320,416,320,384,320C352,320,320,320,288,320C256,320,224,320,192,320C160,320,128,320,96,320C64,320,32,320,16,320L0,320Z"></path></svg>