<?xml version="1.0" standalone="no"?><svg xmlns="http://www.w3.org/2000/svg" viewBox="0 0 1440 320"><path fill="#ffffff" fill-opacity="1" d="M0,192L16,197.3C32,203,64,213,96,213.3C128,213,160,203,192,186.7C224,171,256,149,288,149.3C320,149,352,171,384,149.3C416,128,448,64,480,37.3C512,11,544,21,576,48C608,75,640,117,672,133.3C704,149,736,139,768,112C800,85,832,43,864,26.7C896,11,928,21,960,32C992,43,1024,53,1056,85.3C1088,117,1120,171,1152,165.3C1184,160,1216,96,1248,80C1280,64,1312,96,1344,133.3C1376,171,1408,213,1424,234.7L1440,256L1440,0L1424,0C1408,0,1376,0,1344,0C1312,0,1280,0,1248,0C1216,0,1184,0,1152,0C1120,0,1088,0,1056,0C1024,0,992,0,960,0C928,0,896,0,864,0C832,0,800,0,768,0C736,0,704,0,672,0C640,0,608,0,576,0C544,0,512,0,480,0C448,0,416,0,384,0C352,0,320,0,288,0C256,0,224,0,192,0C160,0,128,0,96,0C64,0,32,0,16,0L0,0Z"></path></svg>